<svg width="16" height="16" viewBox="0 0 16 16" fill="none" xmlns="http://www.w3.org/2000/svg">
<path d="M2.53752 10.1937C2.57578 10.2847 2.64011 10.3624 2.72241 10.4169C2.80472 10.4714 2.90131 10.5003 3.00002 10.5L13 10.5C13.0987 10.5003 13.1953 10.4714 13.2776 10.4169C13.3599 10.3624 13.4243 10.2847 13.4625 10.1937C13.4985 10.1014 13.5077 10.0007 13.4889 9.90339C13.4701 9.80606 13.4241 9.71604 13.3563 9.64375L8.35627 4.64375C8.2607 4.55134 8.13296 4.49968 8.00002 4.49968C7.86708 4.49968 7.73934 4.55134 7.64377 4.64375L2.64377 9.64375C2.57594 9.71604 2.52997 9.80606 2.51117 9.90339C2.49236 10.0007 2.5015 10.1014 2.53752 10.1937Z" fill="white"/>
</svg>
