<svg width="16" height="16" viewBox="0 0 16 16" fill="none" xmlns="http://www.w3.org/2000/svg">
<path d="M14.4937 13.25C13.5608 11.6428 12.0674 10.4366 10.3 9.86251C11.1472 9.35873 11.8055 8.59075 12.1739 7.67653C12.5423 6.76231 12.6003 5.75244 12.3391 4.80204C12.0778 3.85164 11.5118 3.0133 10.7279 2.4158C9.94403 1.8183 8.98564 1.49469 8 1.49469C7.01435 1.49469 6.05597 1.8183 5.27208 2.4158C4.48819 3.0133 3.92215 3.85164 3.66092 4.80204C3.39969 5.75244 3.45773 6.76231 3.8261 7.67653C4.19448 8.59075 4.85282 9.35873 5.7 9.86251C3.93256 10.4366 2.43921 11.6428 1.50625 13.25C1.46044 13.3253 1.43622 13.4118 1.43622 13.5C1.43622 13.5882 1.46044 13.6747 1.50625 13.75C1.54898 13.8266 1.6116 13.8903 1.6875 13.9343C1.7634 13.9783 1.84977 14.001 1.9375 14H14.0625C14.1502 14.001 14.2366 13.9783 14.3125 13.9343C14.3884 13.8903 14.451 13.8266 14.4937 13.75C14.5396 13.6747 14.5638 13.5882 14.5638 13.5C14.5638 13.4118 14.5396 13.3253 14.4937 13.25Z" fill="#5C687E"/>
</svg>
